HIERARCHY
ROOT hip
{
	OFFSET 0.000000 0.000000 0.000000 
	CHANNELS 6 Xposition Yposition Zposition Xrotation Zrotation Yrotation
	JOINT abdomen
	{
		OFFSET 0.000000 3.402643 0.000000 
		CHANNELS 3 Xrotation Zrotation Yrotation
		JOINT chest
		{
			OFFSET 0.000000 8.438565 -0.680529 
			CHANNELS 3 Xrotation Zrotation Yrotation
			JOINT neck
			{
				OFFSET 0.000000 10.207942 -0.272212 
				CHANNELS 3 Xrotation Zrotation Yrotation
				JOINT head
				{
					OFFSET 0.000000 3.130431 0.000000 
					CHANNELS 3 Xrotation Zrotation Yrotation
					End Site
					{
						OFFSET 0.000000 3.130435 0.000000 
					}
				}
			}
			JOINT lCollar
			{
				OFFSET 3.470700 6.669187 -0.816635 
				CHANNELS 3 Yrotation Zrotation Xrotation
				JOINT lShldr
				{
					OFFSET 3.198488 0.000000 0.000000 
					CHANNELS 3 Zrotation Yrotation Xrotation
					JOINT lForeArm
					{
						OFFSET 10.139888 0.000000 0.000000 
						CHANNELS 3 Yrotation Zrotation Xrotation
						JOINT lHand
						{
							OFFSET 8.370511 0.000000 0.000000 
							CHANNELS 3 Zrotation Yrotation Xrotation
							End Site
							{
								OFFSET 4.083176 0.000000 0.000000 
							}
						}
					}
				}
			}
			JOINT rCollar
			{
				OFFSET -3.470700 6.669187 -0.816635 
				CHANNELS 3 Yrotation Zrotation Xrotation
				JOINT rShldr
				{
					OFFSET -3.198488 0.000000 0.000000 
					CHANNELS 3 Zrotation Yrotation Xrotation
					JOINT rForeArm
					{
						OFFSET -10.139888 0.000000 0.000000 
						CHANNELS 3 Yrotation Zrotation Xrotation
						JOINT rHand
						{
							OFFSET -8.370511 0.000000 0.000000 
							CHANNELS 3 Zrotation Yrotation Xrotation
							End Site
							{
								OFFSET -4.083176 0.000000 0.000000 
							}
						}
					}
				}
			}
		}
	}
	JOINT lThigh
	{
		OFFSET 5.308129 -1.633274 1.361059 
		CHANNELS 3 Xrotation Zrotation Yrotation
		JOINT lShin
		{
			OFFSET -2.041588 -20.007561 0.000000 
			CHANNELS 3 Xrotation Zrotation Yrotation
			JOINT lFoot
			{
				OFFSET 0.000000 -19.190928 -1.224953 
				CHANNELS 3 Xrotation Yrotation Zrotation
				End Site
				{
					OFFSET 0.000000 -2.449906 4.627600 
				}
			}
		}
	}
	JOINT rThigh
	{
		OFFSET -5.308129 -1.633274 1.361059 
		CHANNELS 3 Xrotation Zrotation Yrotation
		JOINT rShin
		{
			OFFSET 2.041588 -20.007561 0.000000 
			CHANNELS 3 Xrotation Zrotation Yrotation
			JOINT rFoot
			{
				OFFSET 0.000000 -19.190928 -1.224953 
				CHANNELS 3 Xrotation Yrotation Zrotation
				End Site
				{
					OFFSET 0.000000 -2.449906 4.627600 
				}
			}
		}
	}
}
MOTION
Frames: 8
Frame Time: 0.033333
-1.122377 51.701809 2.861334 -5.126953 2.617188 -17.646040 53.497089 -12.561385 -6.565803 -32.255859 7.705078 -2.401034 51.063168 8.107644 2.471410 -75.996094 -5.839843 2.118147 2.000000 -2.000000 0.000000 -86.669922 21.279297 -0.292969 -30.880249 -2.254234 -1.301964 22.852879 47.182636 22.575365 -2.000000 2.000000 0.000000 76.044922 -13.085938 15.056384 55.638401 1.371984 -2.107394 -26.666422 -42.784065 19.211880 -5.337589 -3.201081 3.942980 23.210114 -5.452437 -2.150545 -4.330145 5.075560 -0.712553 5.262110 -12.146249 -17.724428 50.128109 2.701301 3.699157 24.956688 -15.875224 2.418140 
-2.228232 52.299755 5.675121 -4.580078 1.396503 -16.991734 53.473343 -8.384439 -7.694818 -33.134766 8.242188 -2.197266 51.063168 8.107644 2.471410 -73.593750 -6.503905 5.703125 2.000000 -2.000000 0.000000 -85.722656 17.500002 3.125000 -32.304176 -2.485346 -1.239091 23.153669 46.867294 22.078764 -2.000000 2.000000 0.000000 76.074219 -15.761719 17.226563 53.538155 1.615143 -2.083471 -27.489286 -42.845757 20.259150 -0.784688 -1.623727 4.099935 20.915506 -5.530387 -1.951458 -3.047107 3.712930 -0.080849 -0.411400 -10.239429 -15.509010 50.154655 3.278158 3.628129 19.301119 -14.126335 1.618863 
-3.342360 52.460575 8.512673 -4.238281 0.000000 -16.367189 53.244858 -4.576367 -8.784924 -33.837891 9.121095 -2.011718 51.063168 8.107644 2.471410 -71.699219 -7.080078 8.583984 2.000000 -2.000000 0.000000 -84.746094 13.173827 6.154569 -35.814274 -2.445752 -1.398300 22.399567 46.507641 20.254051 -2.000000 2.000000 0.000000 75.312500 -19.062502 17.584703 51.250732 1.698335 -2.000403 -28.256897 -43.248577 21.252569 4.014443 -0.233020 3.649806 18.827116 -5.598987 -1.747856 -4.828237 2.717247 0.144889 -5.682832 -9.108811 -15.115863 48.342457 3.280791 3.805412 13.078357 -11.801429 0.371572 
-4.489514 52.198147 11.445384 -3.710938 -1.064453 -15.771667 53.072945 -1.811201 -9.974331 -34.189453 10.175780 -1.806641 51.063168 8.107644 2.471410 -70.537109 -7.744139 10.898438 2.000000 -2.000000 0.000000 -82.148438 8.417969 9.394529 -40.741417 -2.085003 -1.585701 21.472324 45.685539 18.028378 -2.000000 2.000000 0.000000 74.042976 -23.330078 15.601600 51.251583 1.817599 -2.032582 -29.014141 -43.651695 22.207449 8.313110 1.210774 3.370235 17.974756 -5.578277 -1.679500 -8.694132 1.903129 0.601884 -10.546245 -9.051770 -16.030733 43.604534 3.632170 3.513783 8.251481 -9.864179 -0.648618 
-5.694468 51.672935 14.544759 -3.359375 -1.943359 -15.029628 53.558254 -1.041487 -11.608883 -33.828125 11.923828 -1.872982 51.063168 8.107644 2.471410 -71.660156 -8.095703 11.582032 2.000000 -2.000000 0.000000 -78.173828 2.216797 11.650391 -46.187984 -2.071148 -1.850893 21.303761 44.704811 16.769810 -2.000000 2.000000 0.000000 73.710938 -27.519533 11.220704 51.961197 1.869266 -1.911914 -28.927443 -43.873943 22.467211 11.965075 2.352980 2.217272 18.137068 -5.635986 -1.527222 -10.919563 2.314041 -0.171016 -14.998859 -9.793574 -17.613838 37.095959 4.023053 2.944473 2.961270 -7.038806 -1.173030 
-6.945326 51.022606 17.764601 -3.173828 -1.943359 -13.974608 54.154228 -1.734560 -13.633611 -32.919922 14.208985 -2.001953 51.063168 8.107644 2.471410 -74.316406 -7.871093 11.483037 2.000000 -2.000000 0.000000 -74.433594 -3.603516 12.802121 -50.754051 -1.965540 -2.052979 21.014931 43.897404 15.830721 -2.000000 2.000000 0.000000 74.638672 -30.908205 5.854359 53.186531 1.654139 -2.081203 -28.425930 -44.220989 22.514980 15.004577 3.261437 1.318850 19.390221 -5.549394 -1.810055 -11.679916 1.975615 -0.314039 -18.797604 -10.428554 -18.478693 31.822186 4.306087 2.592032 -1.543132 -4.277198 -1.584302 
-8.211750 50.216030 21.009783 -3.007812 -1.425781 -12.959227 54.384369 -1.688995 -14.670696 -32.373047 15.253906 -2.099610 51.063168 8.107644 2.471410 -76.269531 -7.734374 11.298829 2.000000 -2.000000 0.000000 -72.666016 -8.740234 11.385235 -53.576134 -2.053282 -2.047862 20.486258 43.495392 16.082243 -2.000000 2.000000 0.000000 76.044922 -34.335938 0.346054 54.406761 1.447703 -2.063874 -28.227715 -44.616013 22.231644 17.979996 3.661127 0.334039 19.913887 -5.529285 -1.843822 -10.822615 1.678037 -0.420823 -22.798250 -10.406134 -18.479002 28.471498 4.491375 2.347209 -4.638481 -2.266082 -1.793173 
-9.490903 49.280838 24.277874 -2.646484 -0.878906 -11.757813 54.074165 -0.062710 -14.886069 -32.382816 14.726564 -1.904297 51.063168 8.107644 2.471410 -76.621094 -7.675781 11.865233 2.000000 -2.000000 0.000000 -72.509766 -12.705077 8.505859 -56.032276 -1.682158 -2.225965 20.201227 43.460155 16.683746 -2.000000 2.000000 0.000000 77.412109 -37.666016 -3.642579 55.462799 1.431047 -2.113736 -27.975897 -44.814064 22.035734 22.636221 4.179893 0.328190 17.797483 -5.538467 -1.814164 -9.207559 0.759087 -0.189509 -25.951239 -10.054211 -18.268742 26.350433 4.602791 2.335444 -7.662620 -0.344719 -2.054600 
